<?xml version="1.0" standalone="no"?>
<!DOCTYPE svg PUBLIC "-//W3C//DTD SVG 20010904//EN"
 "http://www.w3.org/TR/2001/REC-SVG-20010904/DTD/svg10.dtd">
<svg version="1.0" xmlns="http://www.w3.org/2000/svg"
 width="885.000000pt" height="885.000000pt" viewBox="0 0 885.000000 885.000000"
 preserveAspectRatio="xMidYMid meet">
<metadata>
Created by potrace 1.14, written by Peter Selinger 2001-2017
</metadata>
<g transform="translate(0.000000,885.000000) scale(0.100000,-0.100000)"
fill="#000000" stroke="none">
<path d="M3406 8841 c-8 -12 -82 -29 -153 -35 -34 -3 -73 -12 -85 -20 -13 -8
-43 -18 -68 -21 -25 -4 -52 -13 -60 -20 -8 -7 -33 -17 -55 -21 -22 -4 -51 -15
-64 -25 -13 -11 -31 -19 -40 -19 -9 0 -33 -11 -53 -25 -20 -14 -43 -25 -51
-25 -8 0 -17 -6 -20 -14 -3 -8 -22 -19 -41 -26 -20 -6 -36 -16 -36 -21 0 -6
-13 -15 -30 -20 -16 -6 -30 -15 -30 -19 0 -4 -15 -17 -32 -29 -59 -37 -70 -45
-117 -89 -101 -93 -141 -133 -151 -152 -6 -11 -17 -20 -25 -20 -8 0 -15 -7
-15 -15 0 -8 -9 -20 -20 -27 -11 -7 -20 -18 -20 -25 0 -6 -9 -15 -20 -18 -11
-3 -20 -12 -20 -20 0 -7 -11 -27 -25 -43 -14 -17 -25 -36 -25 -44 0 -7 -9 -19
-20 -26 -11 -7 -20 -18 -20 -25 0 -8 -11 -20 -25 -27 -14 -7 -25 -17 -25 -21
0 -3 -30 -10 -67 -14 -38 -4 -75 -13 -84 -21 -9 -8 -34 -18 -55 -21 -22 -4
-54 -15 -72 -25 -18 -10 -41 -18 -51 -18 -10 0 -29 -9 -43 -19 -13 -11 -41
-22 -61 -26 -20 -4 -37 -11 -37 -16 0 -6 -19 -18 -42 -29 -50 -23 -72 -36
-111 -67 -16 -13 -37 -23 -48 -23 -10 0 -19 -4 -19 -9 0 -4 -32 -32 -71 -62
-39 -30 -81 -64 -94 -76 -12 -13 -29 -23 -38 -23 -8 0 -18 -11 -21 -25 -4 -14
-13 -25 -21 -25 -7 0 -17 -9 -20 -20 -3 -11 -12 -20 -20 -20 -8 0 -17 -9 -20
-20 -3 -11 -13 -20 -21 -20 -8 0 -19 -11 -24 -25 -5 -14 -16 -25 -25 -25 -8 0
-15 -6 -15 -14 0 -8 -20 -38 -43 -68 -24 -29 -49 -63 -56 -76 -7 -12 -16 -20
-20 -18 -4 3 -13 -12 -20 -33 -6 -22 -18 -42 -26 -45 -8 -3 -15 -14 -15 -24 0
-10 -9 -28 -20 -39 -10 -12 -22 -33 -25 -46 -4 -14 -13 -28 -20 -30 -6 -3 -17
-26 -24 -50 -6 -25 -18 -52 -26 -61 -8 -8 -15 -23 -15 -34 0 -26 -20 -82 -30
-82 -4 0 -11 -25 -15 -55 -3 -30 -13 -61 -20 -68 -7 -8 -18 -56 -24 -108 -12
-110 -13 -117 -29 -146 -9 -16 -12 -82 -12 -224 1 -218 4 -209 -62 -281 -18
-20 -42 -48 -53 -62 -11 -14 -30 -37 -42 -51 -13 -15 -23 -33 -23 -41 0 -8 -9
-22 -20 -31 -11 -10 -20 -25 -20 -34 0 -9 -9 -24 -19 -33 -10 -10 -22 -32 -25
-50 -4 -19 -15 -44 -26 -56 -12 -14 -20 -38 -20 -59 0 -20 -10 -56 -21 -81
-19 -41 -21 -63 -21 -259 1 -166 4 -216 14 -222 7 -5 9 -9 3 -9 -5 0 -5 -4 2
-8 6 -4 16 -36 22 -72 6 -38 17 -67 26 -72 8 -5 18 -26 21 -48 4 -21 13 -41
20 -44 17 -6 15 -74 -2 -80 -6 -2 -14 -27 -18 -55 -5 -35 -11 -51 -21 -51 -8
0 -15 -3 -15 -7 -1 -20 -20 -151 -26 -173 -21 -87 -28 -165 -19 -188 4 -9 9
-24 11 -32 1 -8 7 -33 13 -55 6 -22 11 -57 11 -79 0 -21 9 -53 19 -70 10 -17
22 -47 26 -66 4 -19 16 -43 26 -53 11 -10 19 -24 19 -31 0 -7 9 -21 20 -31 11
-10 20 -23 20 -30 0 -16 29 -50 135 -159 50 -51 100 -96 113 -100 12 -4 22
-11 22 -17 0 -5 16 -15 35 -23 19 -8 35 -20 35 -25 0 -6 8 -11 18 -11 11 0 29
-9 42 -20 12 -11 39 -23 59 -26 20 -4 52 -15 71 -25 19 -9 71 -23 115 -29 44
-7 89 -15 100 -18 28 -8 214 -8 245 1 51 14 76 18 140 24 41 4 75 13 91 25 20
15 45 20 102 21 70 2 78 0 104 -25 16 -16 35 -28 41 -28 7 0 15 -7 18 -15 4
-8 12 -15 20 -15 7 0 19 -8 26 -18 7 -11 29 -24 50 -31 20 -7 39 -18 42 -26 3
-8 18 -15 33 -15 15 0 42 -9 59 -19 17 -10 51 -22 75 -26 24 -4 58 -15 74 -23
45 -24 373 -24 430 0 23 9 62 19 88 23 25 4 52 13 58 21 6 8 29 17 50 20 21 4
46 15 55 25 9 11 23 19 30 19 7 0 26 11 42 25 17 14 35 25 41 25 5 0 15 9 21
20 6 11 15 20 21 20 12 0 109 97 109 109 0 4 11 17 25 29 14 12 25 28 25 37 0
8 8 22 19 32 10 10 22 32 25 50 4 17 14 37 22 44 8 6 14 19 14 28 0 24 36 44
58 32 10 -6 90 -12 177 -14 150 -3 159 -5 176 -26 11 -13 19 -32 19 -42 0 -10
9 -33 20 -51 11 -18 20 -50 20 -70 0 -42 9 -70 19 -63 4 2 9 -1 10 -8 3 -14
10 -246 13 -453 3 -116 6 -145 20 -160 9 -11 20 -32 24 -49 4 -16 15 -38 25
-48 11 -10 19 -24 19 -32 0 -9 11 -25 25 -37 14 -12 25 -28 25 -35 0 -7 6 -13
14 -13 8 0 17 -9 21 -19 3 -11 15 -23 26 -26 10 -4 19 -10 19 -15 0 -5 18 -19
40 -31 22 -13 40 -26 40 -30 0 -5 18 -13 40 -19 22 -6 40 -15 40 -20 0 -4 12
-11 28 -15 15 -3 36 -13 47 -21 20 -15 20 -29 25 -1082 l5 -1067 25 -26 c53
-56 161 -57 217 -2 l28 28 5 1070 c3 589 6 1070 8 1071 22 10 161 78 172 85 8
5 30 19 47 30 18 12 33 25 33 29 0 5 9 11 19 15 11 3 23 15 26 26 4 10 13 19
21 19 8 0 14 6 14 13 0 7 11 23 25 35 14 12 25 28 25 37 0 8 8 22 19 32 17 17
37 68 33 86 -1 4 4 7 12 7 21 0 26 56 26 325 1 226 3 254 20 290 11 22 19 54
20 70 0 17 9 48 20 70 11 21 23 53 26 71 8 44 30 50 203 53 79 1 153 7 163 12
14 7 23 7 33 -1 16 -13 65 -104 65 -121 0 -6 11 -24 25 -41 14 -16 25 -36 25
-43 0 -8 9 -19 20 -25 11 -6 20 -15 20 -19 0 -13 96 -111 109 -111 6 0 15 -9
21 -20 6 -11 16 -20 21 -20 6 0 24 -11 41 -25 16 -14 35 -25 42 -25 7 0 21 -8
30 -19 9 -10 34 -21 55 -25 21 -3 44 -12 51 -20 10 -13 29 -18 111 -30 10 -1
25 -8 35 -16 23 -20 410 -22 422 -3 4 7 32 17 62 23 30 6 71 20 91 31 20 10
49 19 63 19 15 0 29 7 32 15 3 8 22 19 42 26 21 7 43 20 50 31 7 10 17 18 23
18 5 0 17 7 27 16 9 8 35 29 57 46 38 29 43 30 110 23 43 -4 80 -13 96 -24 16
-12 49 -20 90 -23 36 -3 71 -8 77 -12 6 -3 27 -7 47 -8 19 -1 35 -4 35 -8 0
-10 177 -13 192 -4 7 4 21 9 32 10 84 8 207 34 227 47 13 10 35 17 49 17 14 0
41 11 60 25 19 14 42 25 52 25 10 0 18 4 18 8 0 5 12 15 28 23 48 24 82 52
175 146 107 107 137 142 137 158 0 7 9 20 20 30 11 10 20 24 20 31 0 7 8 21
19 31 10 10 21 35 25 55 4 21 13 44 22 52 14 15 19 33 29 116 9 81 10 85 19
91 16 12 17 140 0 193 -8 28 -17 71 -20 96 -9 87 -15 111 -29 116 -7 3 -16 25
-20 50 -3 24 -13 56 -21 72 -18 34 -18 61 0 68 7 3 16 23 20 44 3 22 13 43 21
48 9 4 19 33 25 66 5 32 17 70 25 83 14 21 17 60 17 245 0 159 -3 223 -12 228
-6 4 -12 11 -12 16 0 5 -4 19 -9 32 -5 13 -9 39 -9 58 0 21 -8 42 -21 55 -11
11 -23 36 -26 54 -3 19 -14 42 -24 51 -11 9 -19 24 -19 33 0 9 -9 24 -20 34
-11 9 -20 23 -20 30 0 8 -10 26 -22 40 -13 14 -32 38 -43 52 -26 35 -64 80
-92 111 -14 15 -23 38 -23 57 -1 18 0 109 0 204 1 136 -2 179 -14 202 -13 23
-37 173 -39 238 0 7 -6 14 -13 17 -7 3 -16 30 -19 60 -4 31 -11 56 -15 56 -10
0 -30 56 -30 85 0 12 -9 30 -20 40 -11 10 -20 28 -20 39 0 12 -7 32 -15 46 -8
14 -21 39 -29 56 -8 17 -22 36 -30 44 -9 7 -16 20 -16 29 0 9 -9 24 -20 34
-11 9 -23 31 -27 47 -3 17 -12 30 -19 30 -8 0 -16 11 -20 25 -3 14 -11 25 -18
25 -12 1 -50 51 -68 93 -7 15 -18 27 -26 27 -7 0 -15 7 -18 15 -8 20 -148 161
-168 168 -9 4 -16 13 -16 22 0 8 -7 15 -15 15 -16 0 -155 109 -155 122 0 4 -9
8 -19 8 -11 0 -32 10 -48 23 -39 31 -61 44 -110 67 -24 11 -43 23 -43 29 0 5
-17 12 -37 16 -20 4 -48 15 -61 26 -14 10 -33 19 -44 19 -10 0 -30 7 -44 16
-13 9 -45 21 -71 25 -26 5 -54 16 -63 24 -9 8 -30 15 -46 15 -69 1 -108 18
-151 67 -24 26 -43 52 -43 57 0 4 -11 21 -25 38 -14 16 -25 36 -25 44 0 8 -7
14 -15 14 -9 0 -20 11 -24 24 -5 13 -17 26 -25 29 -9 4 -16 13 -16 21 0 8 -9
18 -20 21 -11 3 -20 10 -20 15 0 8 -61 70 -151 152 -47 44 -58 52 -116 89 -18
12 -33 25 -33 29 0 4 -13 13 -30 19 -16 5 -30 14 -30 20 0 5 -16 15 -36 21
-19 7 -38 18 -41 26 -3 8 -12 14 -20 14 -8 0 -31 11 -51 25 -20 14 -44 25 -53
25 -9 0 -28 9 -42 20 -14 11 -34 20 -45 20 -26 0 -82 20 -82 30 0 4 -19 11
-43 14 -23 4 -55 13 -70 21 -16 8 -52 17 -80 20 -29 3 -69 8 -90 10 -21 3 -48
11 -60 20 -31 22 -478 22 -497 0 -11 -13 -28 -17 -143 -30 -27 -3 -59 -12 -70
-20 -12 -7 -40 -17 -62 -21 -22 -4 -45 -13 -53 -20 -7 -7 -29 -16 -50 -20 -20
-4 -49 -16 -63 -26 -37 -27 -162 -27 -198 0 -14 10 -43 22 -63 26 -21 4 -44
13 -52 21 -8 8 -25 15 -38 15 -13 0 -42 9 -63 21 -22 11 -69 22 -105 25 -36 3
-83 15 -106 25 -36 17 -65 19 -267 19 -124 0 -228 -4 -231 -9z m459 -243 c17
-9 64 -19 105 -23 41 -4 85 -13 97 -21 12 -8 45 -19 72 -25 27 -6 55 -17 62
-25 6 -8 17 -14 24 -14 16 0 124 -56 146 -76 18 -17 105 -19 115 -3 3 6 26 20
50 31 24 10 44 23 44 28 0 4 15 12 33 15 17 4 39 13 47 21 9 7 37 18 63 24 27
6 58 17 70 24 12 8 59 18 105 22 45 3 82 10 82 14 0 20 86 29 264 27 155 -2
198 -5 226 -19 19 -9 67 -20 105 -23 41 -4 83 -14 101 -26 17 -10 45 -19 61
-19 17 0 41 -8 54 -18 13 -10 43 -24 67 -31 23 -6 42 -15 42 -20 0 -4 18 -13
39 -20 21 -6 42 -18 45 -26 3 -8 14 -15 25 -15 11 0 32 -11 47 -25 15 -14 32
-25 37 -25 10 0 23 -10 71 -57 13 -13 28 -23 33 -23 6 0 23 -12 39 -27 16 -16
43 -39 59 -53 41 -34 135 -145 135 -159 0 -5 9 -15 20 -21 11 -6 20 -16 20
-21 0 -6 11 -24 25 -41 14 -16 25 -35 25 -42 0 -6 9 -19 20 -29 11 -9 20 -25
20 -35 0 -20 56 -79 66 -69 4 3 12 0 20 -7 7 -7 41 -16 75 -20 34 -4 78 -16
98 -27 19 -10 50 -19 68 -19 21 0 40 -8 50 -20 10 -11 29 -20 44 -20 14 0 47
-11 73 -25 26 -14 53 -25 60 -25 7 0 23 -9 36 -20 13 -11 31 -20 41 -20 10 0
23 -9 29 -20 6 -11 19 -20 30 -20 10 0 31 -11 46 -25 15 -14 32 -25 39 -25 7
0 20 -9 30 -20 10 -11 23 -20 30 -20 6 0 21 -10 33 -22 11 -13 33 -32 48 -43
40 -29 224 -211 224 -221 0 -5 9 -15 20 -22 11 -7 20 -17 20 -23 0 -7 10 -22
23 -34 34 -35 46 -52 59 -82 7 -15 21 -34 30 -41 10 -7 18 -21 18 -31 0 -10 9
-26 20 -36 11 -10 20 -26 20 -35 0 -9 11 -31 25 -50 14 -19 25 -42 25 -51 0
-10 7 -25 16 -33 8 -9 19 -38 23 -65 4 -27 15 -57 24 -66 10 -9 17 -24 17 -33
2 -76 15 -172 26 -193 16 -31 25 -204 13 -236 -7 -20 -16 -23 -59 -23 -47 0
-88 12 -100 30 -3 5 -27 10 -55 13 -97 10 -104 20 -111 154 -3 60 -11 104 -20
118 -8 12 -17 47 -21 76 -3 30 -14 66 -25 81 -10 14 -21 40 -24 57 -4 16 -12
32 -19 35 -7 2 -15 21 -19 40 -4 20 -11 36 -17 36 -5 0 -15 12 -21 28 -7 15
-21 37 -32 50 -11 12 -21 30 -22 38 -1 9 -12 23 -23 31 -12 8 -21 21 -21 29 0
8 -7 14 -15 14 -8 0 -15 4 -15 10 0 5 -12 22 -27 38 -16 16 -41 42 -56 58 -54
56 -74 74 -85 74 -6 0 -14 9 -17 20 -3 11 -13 20 -20 20 -8 0 -19 9 -25 20 -6
11 -17 20 -25 20 -7 0 -26 10 -42 23 -32 25 -61 42 -115 69 -21 10 -38 22 -38
27 0 5 -18 11 -40 15 -21 3 -43 13 -48 21 -4 9 -31 19 -58 24 -28 4 -61 15
-75 24 -13 9 -37 17 -54 17 -16 1 -48 8 -70 17 -41 16 -61 19 -175 29 -78 7
-117 25 -133 62 -6 15 -17 30 -23 34 -7 4 -15 25 -19 45 -4 21 -15 49 -26 64
-10 15 -19 36 -19 46 0 11 -9 28 -20 38 -11 10 -20 26 -20 35 0 9 -11 26 -25
38 -14 12 -25 26 -25 32 0 10 -21 39 -57 77 -13 13 -23 26 -23 30 0 8 -73 73
-82 73 -4 0 -8 6 -8 14 0 7 -8 16 -17 20 -10 3 -38 21 -63 41 -25 19 -56 40
-69 45 -13 6 -35 19 -49 30 -13 11 -33 20 -43 20 -10 0 -22 7 -27 16 -6 10
-31 20 -63 25 -30 5 -59 15 -64 23 -6 8 -37 17 -70 21 -93 10 -128 16 -149 27
-33 18 -302 14 -366 -5 -30 -8 -79 -18 -109 -22 -30 -3 -59 -13 -65 -20 -6 -8
-29 -17 -51 -20 -22 -4 -52 -15 -67 -26 -15 -10 -30 -19 -33 -19 -4 0 -21 -11
-39 -25 -18 -14 -38 -25 -44 -25 -7 0 -17 -9 -24 -20 -7 -11 -19 -20 -26 -20
-8 0 -22 -10 -32 -22 -17 -21 -27 -23 -110 -23 -81 0 -94 2 -109 21 -9 12 -27
25 -39 28 -12 4 -22 11 -22 17 0 5 -16 15 -35 23 -19 8 -35 19 -35 25 0 5 -10
13 -22 17 -13 4 -34 15 -48 25 -21 15 -44 22 -92 28 -4 1 -13 7 -21 15 -7 8
-38 17 -68 21 -30 3 -83 14 -119 23 -86 22 -305 21 -370 -1 -25 -8 -78 -18
-119 -21 -48 -4 -78 -12 -85 -22 -6 -8 -35 -18 -65 -23 -30 -5 -57 -15 -62
-24 -5 -8 -21 -18 -36 -22 -14 -3 -38 -15 -51 -26 -14 -10 -30 -19 -37 -19 -6
0 -20 -9 -30 -20 -10 -11 -23 -20 -30 -20 -6 0 -21 -11 -33 -25 -12 -14 -29
-25 -37 -25 -8 0 -15 -7 -15 -15 0 -8 -4 -15 -8 -15 -12 0 -82 -66 -82 -78 0
-6 -9 -14 -20 -17 -11 -3 -20 -14 -20 -23 0 -10 -9 -23 -20 -30 -11 -7 -20
-19 -20 -27 0 -8 -11 -25 -25 -37 -14 -12 -25 -29 -25 -38 0 -9 -9 -25 -20
-35 -11 -10 -20 -28 -20 -39 0 -12 -9 -32 -20 -46 -11 -14 -20 -33 -20 -43 0
-18 -17 -57 -29 -67 -3 -3 -13 -18 -21 -35 -22 -41 -50 -52 -158 -60 -51 -4
-105 -13 -120 -21 -14 -7 -47 -16 -72 -19 -25 -4 -63 -14 -85 -25 -22 -10 -59
-21 -82 -25 -23 -3 -44 -13 -47 -21 -3 -7 -23 -17 -46 -20 -22 -4 -40 -11 -40
-16 0 -5 -16 -16 -36 -24 -21 -9 -43 -22 -51 -30 -8 -8 -19 -14 -25 -14 -5 0
-23 -11 -40 -25 -16 -14 -36 -25 -43 -25 -8 0 -19 -9 -25 -20 -6 -11 -17 -20
-25 -20 -7 0 -17 -9 -20 -20 -3 -11 -13 -20 -20 -20 -8 0 -19 -9 -25 -19 -5
-11 -19 -22 -29 -26 -11 -3 -23 -15 -26 -26 -4 -10 -13 -19 -21 -19 -8 0 -14
-7 -14 -15 0 -9 -7 -18 -16 -22 -8 -3 -20 -16 -25 -29 -4 -13 -15 -24 -24 -24
-8 0 -15 -7 -15 -15 0 -8 -9 -19 -20 -25 -11 -6 -20 -17 -20 -25 0 -7 -11 -27
-25 -43 -14 -17 -25 -37 -25 -46 0 -8 -9 -20 -20 -26 -11 -6 -20 -16 -20 -23
0 -7 -11 -34 -25 -62 -13 -27 -25 -56 -25 -63 0 -7 -8 -22 -19 -33 -11 -12
-21 -41 -24 -74 -3 -29 -12 -64 -20 -77 -10 -14 -18 -60 -21 -121 -4 -54 -11
-107 -16 -117 -11 -21 -67 -40 -117 -40 -18 0 -33 -4 -33 -8 0 -32 -143 -45
-158 -14 -13 25 -4 210 12 241 8 14 17 66 20 115 5 66 11 95 26 113 11 14 20
38 20 54 0 32 19 79 32 79 4 0 8 10 8 23 0 13 11 38 25 57 14 19 25 41 25 50
0 9 9 25 20 35 11 10 20 26 20 36 0 10 8 24 18 31 10 7 24 27 31 45 7 17 19
34 27 37 8 3 14 12 14 20 0 9 9 20 20 26 11 6 20 17 20 25 0 8 9 20 20 27 11
7 20 17 20 22 0 9 180 188 222 221 15 11 37 28 50 38 13 10 37 29 53 42 17 14
35 25 41 25 6 0 23 11 38 25 15 14 36 25 47 25 11 0 22 7 25 15 3 8 21 19 39
25 18 6 39 18 45 26 7 7 21 14 31 14 11 0 27 8 37 18 20 18 27 21 82 29 19 3
43 14 53 24 10 11 32 19 50 19 18 0 48 8 67 19 19 10 61 21 93 25 101 13 157
48 171 109 3 15 11 27 16 27 6 0 17 18 26 39 8 22 22 42 30 45 8 3 14 12 14
20 0 9 9 20 20 26 11 6 20 17 20 25 0 8 6 18 13 22 6 4 24 24 39 44 41 56 165
169 185 169 7 0 17 9 23 20 6 11 17 20 25 20 8 0 19 9 25 20 6 11 17 20 24 20
7 0 25 11 40 25 15 14 36 25 47 25 11 0 22 7 25 15 3 8 22 19 42 26 21 6 44
17 52 24 8 8 29 17 45 21 17 4 41 15 54 26 13 10 37 18 54 18 16 0 44 9 61 19
19 12 60 22 106 26 41 4 84 13 96 20 31 20 71 23 269 21 142 -2 186 -5 210
-18z m-109 -572 c22 -8 58 -17 82 -19 24 -3 52 -13 62 -22 9 -9 34 -18 53 -22
20 -3 44 -14 53 -24 9 -11 23 -19 31 -19 18 0 160 -144 168 -171 4 -12 16 -32
26 -43 12 -12 19 -35 19 -60 0 -23 7 -50 15 -60 8 -10 12 -23 9 -27 -3 -5 -1
-9 3 -9 14 0 6 -96 -11 -128 -9 -17 -16 -44 -16 -59 0 -42 -99 -173 -130 -173
-6 0 -19 -9 -29 -19 -13 -13 -40 -22 -78 -26 -32 -3 -66 -10 -75 -15 -10 -6
-19 -6 -23 -1 -3 5 -32 12 -64 16 -39 4 -65 13 -77 26 -47 52 -102 -5 -96 -99
2 -25 86 -112 108 -112 7 0 19 -8 26 -18 7 -10 32 -23 56 -30 23 -7 42 -17 42
-22 0 -4 13 -11 29 -15 16 -3 39 -15 52 -26 12 -10 30 -19 39 -19 10 0 29 -9
42 -20 14 -10 44 -24 67 -29 23 -5 50 -16 59 -24 9 -8 35 -17 57 -21 55 -10
58 -10 73 -19 6 -5 17 -5 23 -1 17 10 159 10 162 0 2 -6 9 -6 18 0 8 5 16 9
19 10 63 11 90 19 115 34 17 10 45 20 63 24 19 3 45 15 59 26 14 11 34 20 43
20 10 0 23 7 30 15 7 8 30 20 51 27 22 6 39 15 39 19 0 5 19 14 43 21 23 7 48
20 55 30 7 10 19 18 26 18 7 0 34 20 60 44 43 39 48 48 48 88 1 50 -25 97 -55
98 -10 0 -27 -9 -38 -19 -47 -44 -276 -44 -320 0 -10 10 -23 19 -29 19 -11 0
-72 61 -107 109 -13 16 -23 43 -23 61 0 17 -7 45 -17 63 -20 40 -20 114 1 155
9 17 16 48 16 70 0 24 7 46 19 58 10 11 22 30 25 41 9 28 151 173 170 173 8 0
23 8 33 19 10 10 33 21 52 25 19 3 43 13 52 22 10 9 40 18 66 21 26 3 64 12
83 21 26 12 64 15 150 15 121 -1 133 -3 165 -20 11 -5 46 -13 79 -16 39 -4 66
-13 80 -26 12 -12 34 -21 48 -21 14 0 33 -9 43 -20 10 -11 24 -20 30 -20 11 0
59 -33 113 -80 13 -11 28 -20 33 -20 5 0 9 -6 9 -14 0 -8 9 -18 20 -21 11 -3
20 -10 20 -14 0 -5 10 -20 23 -34 42 -49 67 -85 67 -96 0 -5 8 -18 19 -28 10
-10 22 -34 26 -53 4 -19 15 -43 24 -54 13 -14 17 -45 20 -148 2 -86 7 -131 15
-133 6 -2 66 -6 133 -9 83 -3 133 -10 155 -20 17 -9 50 -16 72 -16 49 0 116
-17 116 -30 0 -5 20 -12 44 -15 25 -4 53 -16 62 -26 9 -10 27 -19 39 -19 11 0
30 -7 41 -15 10 -8 37 -24 59 -35 58 -29 87 -47 94 -57 3 -5 19 -17 36 -27 37
-24 51 -35 80 -63 12 -13 27 -23 34 -23 6 0 11 -4 11 -9 0 -5 20 -31 45 -57
24 -27 50 -61 56 -76 6 -15 15 -28 20 -28 5 0 15 -16 23 -35 8 -19 19 -35 25
-35 5 0 13 -15 16 -32 4 -18 14 -40 22 -49 7 -9 19 -47 25 -85 5 -37 17 -78
25 -90 19 -30 17 -251 -3 -289 -7 -15 -15 -50 -16 -78 l-3 -52 175 -3 c127 -2
183 -7 204 -17 16 -8 58 -18 94 -21 43 -5 71 -13 84 -26 10 -10 28 -18 41 -18
12 0 33 -7 47 -15 14 -8 39 -21 56 -29 17 -8 36 -22 44 -30 7 -9 17 -16 22
-16 15 0 64 -40 128 -105 80 -81 89 -92 103 -123 6 -15 20 -33 29 -40 10 -7
18 -24 18 -37 0 -13 9 -32 19 -42 11 -10 23 -31 27 -48 4 -16 14 -40 22 -52
13 -21 33 -179 34 -263 0 -92 -21 -228 -41 -265 -12 -22 -21 -47 -21 -56 0 -9
-9 -24 -20 -34 -11 -10 -20 -26 -20 -35 0 -10 -6 -23 -14 -29 -8 -7 -27 -37
-42 -67 -26 -52 -27 -57 -11 -69 9 -7 17 -16 17 -22 0 -5 11 -24 25 -43 14
-19 25 -42 25 -52 0 -10 7 -21 15 -24 8 -3 20 -25 25 -48 6 -22 18 -57 26 -77
11 -26 16 -69 16 -150 0 -119 -5 -153 -21 -173 -6 -7 -13 -31 -17 -54 -4 -23
-10 -42 -14 -42 -4 0 -13 -15 -20 -33 -26 -64 -66 -120 -141 -195 -98 -99
-126 -122 -149 -122 -11 0 -24 -9 -30 -20 -6 -10 -26 -22 -45 -26 -19 -3 -35
-10 -35 -14 0 -10 -56 -30 -86 -30 -13 0 -24 -4 -24 -10 0 -20 -70 -28 -247
-28 -191 -1 -235 5 -267 38 -25 24 -23 80 3 125 10 16 21 45 24 63 4 18 22 49
41 68 l35 36 45 -17 c52 -20 223 -26 234 -9 4 6 30 16 57 23 59 14 155 59 155
72 0 6 8 13 18 16 25 10 72 59 72 76 0 8 6 17 14 20 7 3 22 31 31 61 10 31 22
56 26 56 5 0 9 51 9 114 0 88 -3 116 -15 126 -8 7 -20 30 -25 51 -6 22 -15 39
-20 39 -5 0 -15 19 -22 42 -7 24 -21 51 -30 60 -11 11 -18 33 -18 56 0 21 -3
42 -7 46 -10 10 -11 76 -2 82 5 3 9 25 9 48 0 28 7 52 20 69 12 14 25 40 31
57 6 16 15 30 20 30 5 0 15 16 23 35 8 19 19 35 24 35 5 0 12 14 16 32 3 17
14 40 23 50 24 27 25 218 1 245 -9 10 -20 32 -24 48 -4 17 -15 41 -26 54 -10
13 -18 29 -18 36 0 7 -35 48 -77 90 -98 96 -108 105 -118 105 -4 0 -23 11 -41
25 -18 14 -44 25 -57 25 -13 0 -32 9 -42 20 -11 12 -31 20 -49 20 -37 0 -109
19 -116 31 -3 4 -100 11 -215 15 -177 6 -216 10 -245 25 -19 11 -41 19 -49 19
-7 0 -28 16 -46 35 -26 29 -33 47 -39 96 -3 34 -3 65 0 70 8 14 8 419 0 456
-4 17 -13 34 -21 36 -7 3 -16 21 -20 39 -4 18 -16 41 -26 51 -11 10 -19 22
-19 27 0 26 -219 240 -245 240 -7 0 -22 9 -35 20 -13 11 -31 20 -40 20 -9 0
-25 8 -36 19 -12 10 -40 22 -65 26 -24 4 -48 14 -54 21 -6 8 -39 16 -80 19
-155 12 -178 15 -208 29 -18 8 -59 16 -92 18 -42 3 -68 10 -84 23 -69 60 -111
106 -111 121 0 9 -8 22 -17 29 -14 10 -18 36 -23 129 -5 83 -11 121 -22 133
-9 10 -19 39 -22 64 -4 27 -15 54 -26 64 -11 10 -20 21 -20 25 0 13 -95 110
-108 110 -6 0 -16 8 -21 19 -6 10 -27 22 -48 26 -20 4 -42 13 -48 22 -11 14
-132 35 -205 35 -62 0 -162 -20 -179 -36 -10 -9 -25 -16 -34 -16 -9 0 -31 -13
-49 -30 -18 -16 -35 -30 -39 -30 -4 0 -19 -25 -34 -55 l-27 -55 22 -35 c20
-33 25 -35 75 -35 30 0 56 4 59 9 16 25 171 30 217 7 18 -9 40 -16 51 -16 10
0 27 -9 37 -19 10 -10 28 -22 40 -26 23 -7 101 -96 101 -116 0 -8 9 -29 20
-46 28 -46 32 -209 6 -235 -13 -14 -18 -28 -30 -80 -4 -16 -13 -28 -21 -28 -8
0 -15 -8 -15 -18 0 -21 -97 -122 -117 -122 -7 0 -13 -6 -13 -14 0 -8 -10 -18
-22 -22 -13 -4 -29 -15 -36 -25 -7 -11 -19 -19 -26 -19 -7 0 -24 -8 -37 -18
-13 -11 -37 -22 -53 -26 -16 -4 -41 -16 -54 -27 -14 -10 -35 -19 -48 -19 -13
0 -33 -9 -44 -20 -11 -11 -30 -20 -42 -20 -13 0 -37 -9 -54 -19 -17 -10 -46
-22 -65 -26 -19 -4 -45 -16 -58 -26 -13 -11 -34 -19 -47 -19 -13 0 -28 -9 -34
-20 -6 -11 -16 -20 -23 -20 -7 0 -32 -19 -55 -43 -36 -37 -45 -55 -61 -122
-17 -71 -19 -124 -19 -569 0 -548 0 -551 -64 -580 -18 -9 -41 -21 -50 -28 -14
-10 -22 -10 -35 -1 -10 7 -33 19 -51 27 -63 29 -63 33 -63 575 0 289 -4 502
-10 526 -5 22 -12 51 -14 65 -11 53 -16 66 -38 90 -12 14 -38 36 -57 50 -19
13 -39 30 -43 37 -4 7 -18 13 -31 13 -13 0 -34 8 -47 19 -13 10 -39 22 -58 26
-19 4 -48 16 -65 26 -17 10 -41 19 -53 19 -13 0 -32 9 -43 20 -11 11 -31 20
-44 20 -13 0 -34 9 -48 19 -13 11 -38 23 -54 27 -16 4 -40 15 -53 26 -13 10
-30 18 -37 18 -7 0 -19 8 -26 19 -7 10 -23 21 -35 25 -13 4 -23 14 -23 22 0 8
-6 14 -13 14 -19 0 -117 99 -117 119 0 9 -8 21 -19 28 -10 6 -21 28 -24 47 -3
20 -13 43 -21 52 -15 15 -18 29 -18 104 -1 81 3 109 17 123 7 8 17 28 21 43 9
36 78 121 105 129 12 4 30 16 40 26 10 10 27 19 37 19 9 0 31 7 47 16 38 20
152 20 201 -1 20 -8 58 -15 83 -15 40 0 50 4 69 29 22 31 25 68 6 75 -7 3 -15
18 -19 35 -3 16 -18 37 -31 46 -14 9 -34 25 -45 36 -10 10 -27 19 -36 19 -9 0
-24 7 -34 16 -16 15 -123 37 -184 37 -59 1 -189 -24 -205 -38 -9 -8 -31 -18
-49 -21 -17 -4 -36 -15 -42 -25 -5 -11 -15 -19 -21 -19 -12 0 -108 -97 -108
-109 0 -4 -9 -16 -19 -25 -11 -10 -23 -37 -26 -59 -4 -23 -14 -53 -23 -67 -11
-17 -18 -61 -22 -139 -5 -90 -9 -116 -23 -126 -9 -7 -17 -20 -17 -29 0 -15
-43 -61 -111 -120 -16 -14 -45 -21 -93 -26 -39 -3 -81 -11 -93 -18 -21 -12
-52 -16 -193 -27 -44 -4 -82 -12 -91 -21 -9 -8 -34 -18 -55 -21 -21 -4 -47
-15 -58 -25 -11 -10 -27 -18 -35 -18 -9 0 -27 -9 -41 -20 -14 -11 -31 -20 -38
-20 -25 0 -242 -216 -242 -240 0 -5 -8 -17 -19 -27 -10 -10 -22 -33 -26 -51
-4 -18 -13 -36 -20 -39 -8 -2 -17 -19 -21 -36 -5 -25 -6 -375 -1 -477 4 -79
-3 -107 -37 -143 -18 -20 -40 -37 -47 -37 -8 0 -30 -8 -49 -19 -29 -15 -68
-19 -239 -25 -123 -4 -210 -11 -218 -18 -7 -6 -13 -7 -13 -3 0 4 -6 2 -14 -4
-8 -6 -38 -14 -67 -18 -31 -3 -61 -13 -71 -23 -9 -9 -35 -20 -57 -24 -23 -3
-41 -11 -41 -17 0 -5 -13 -15 -28 -22 -36 -15 -49 -26 -138 -115 -41 -41 -74
-78 -74 -84 0 -5 -8 -22 -19 -36 -10 -15 -21 -40 -25 -57 -4 -16 -15 -38 -24
-48 -24 -27 -23 -218 1 -245 9 -10 20 -33 23 -50 4 -18 11 -32 16 -32 5 0 16
-16 24 -35 8 -19 18 -35 23 -35 5 0 14 -14 20 -32 6 -17 19 -40 28 -50 15 -17
23 -54 36 -160 2 -16 -1 -28 -7 -28 -6 0 -4 -5 4 -10 10 -6 11 -10 3 -10 -8 0
-13 -14 -13 -39 0 -23 -8 -48 -20 -64 -11 -14 -23 -39 -26 -56 -4 -16 -12 -32
-20 -35 -7 -3 -18 -23 -24 -45 -6 -22 -17 -47 -25 -55 -11 -11 -15 -41 -15
-125 0 -61 4 -111 9 -111 4 0 16 -24 25 -54 10 -30 24 -60 32 -67 8 -6 14 -16
14 -21 0 -12 58 -68 71 -68 4 0 13 -8 18 -19 6 -10 23 -22 38 -26 16 -3 35
-13 44 -21 8 -8 37 -18 62 -23 26 -4 54 -15 63 -22 24 -19 185 -16 243 6 l45
15 33 -34 c22 -22 36 -49 40 -73 4 -21 14 -49 24 -63 9 -14 20 -40 23 -58 4
-26 0 -38 -23 -65 l-29 -32 -232 0 c-209 0 -233 2 -244 18 -7 9 -22 17 -33 17
-27 0 -83 20 -83 30 0 4 -16 11 -35 14 -19 4 -39 16 -45 26 -6 11 -19 20 -30
20 -10 0 -31 10 -45 23 -62 50 -183 176 -189 194 -4 11 -15 28 -26 38 -11 10
-20 27 -20 38 0 10 -8 31 -19 45 -10 15 -22 43 -26 62 -4 19 -13 45 -21 56 -7
13 -14 56 -16 102 -1 53 -6 79 -13 75 -5 -3 -4 0 3 8 6 7 12 32 12 56 0 24 4
51 10 61 5 9 17 42 25 74 9 31 22 59 30 62 8 3 15 16 15 29 0 13 9 32 20 42
11 10 23 27 26 39 4 11 14 26 23 32 14 11 12 18 -13 68 -15 30 -34 60 -42 67
-8 6 -14 19 -14 29 0 9 -9 25 -20 35 -11 10 -20 25 -20 34 0 9 -9 34 -21 56
-14 26 -24 69 -29 130 -9 106 -12 118 -25 127 -6 5 -6 8 2 8 6 0 10 11 8 25
-1 14 1 27 5 30 4 2 8 35 9 72 2 73 19 153 31 153 4 0 11 16 14 35 4 20 16 41
26 48 12 7 20 23 20 39 0 15 8 33 18 40 9 7 22 24 28 38 26 58 197 229 230
230 6 0 17 7 24 16 8 8 27 22 44 30 17 8 42 21 56 29 14 8 36 15 49 15 13 0
29 7 36 17 8 10 35 19 78 24 37 5 79 15 94 22 18 9 65 15 128 17 55 1 136 2
180 3 l80 2 -2 42 c-1 23 -9 62 -17 87 -23 66 -23 253 -1 295 9 18 19 55 22
84 3 29 13 63 22 77 10 14 21 37 24 51 4 14 16 36 27 49 11 13 20 29 20 37 0
7 7 16 15 19 8 4 15 11 15 18 0 30 160 194 237 243 15 9 32 23 36 30 4 7 13
13 18 13 6 0 25 11 43 25 18 14 40 25 49 25 10 0 17 4 17 8 0 11 45 32 69 32
10 0 26 9 35 19 10 11 37 23 59 26 23 4 45 12 48 17 8 13 74 27 125 28 22 0
45 5 52 12 16 16 27 17 167 24 66 3 125 7 131 9 8 2 13 46 15 127 3 95 8 130
21 149 9 15 20 43 24 63 3 21 13 40 20 43 8 3 14 11 14 18 0 11 38 67 74 107
8 9 19 26 26 37 6 12 17 21 25 21 8 0 15 7 15 15 0 8 4 15 9 15 5 0 20 9 33
20 54 47 102 80 113 80 6 0 20 9 30 20 10 11 28 20 40 20 12 0 34 9 48 20 16
12 48 23 79 26 29 3 71 12 93 20 22 7 51 15 65 17 52 8 209 -3 246 -17z m-851
-1441 c28 -8 59 -15 69 -15 17 0 120 -47 184 -84 53 -31 132 -121 132 -151 0
-12 3 -25 7 -29 21 -21 -6 -156 -31 -156 -8 0 -20 -9 -27 -21 -10 -15 -29 -22
-70 -26 -71 -7 -86 0 -175 84 -28 27 -64 48 -99 59 -52 17 -57 17 -112 -2 -32
-10 -74 -33 -93 -51 -19 -18 -38 -33 -42 -33 -4 0 -11 -15 -17 -32 -5 -18 -17
-52 -25 -76 -17 -46 -14 -88 10 -136 7 -16 14 -39 14 -51 0 -11 11 -36 25 -55
14 -19 25 -42 25 -52 0 -11 7 -18 20 -18 11 0 20 -5 20 -11 0 -6 20 -30 45
-53 25 -24 45 -48 45 -54 0 -7 7 -12 15 -12 8 0 24 -9 34 -19 11 -11 34 -27
50 -36 17 -8 31 -20 31 -25 0 -6 6 -10 13 -10 8 0 22 -9 31 -19 10 -11 31 -23
47 -26 16 -4 34 -15 39 -26 6 -10 21 -19 34 -19 13 0 34 -8 47 -19 13 -10 39
-22 58 -26 19 -4 41 -13 48 -20 7 -7 32 -16 55 -20 24 -4 54 -16 67 -26 16
-13 40 -19 75 -19 31 0 65 -7 86 -19 20 -10 62 -22 95 -25 33 -4 73 -14 90
-22 16 -8 46 -17 65 -20 19 -3 49 -14 66 -25 17 -10 45 -19 63 -19 17 0 39 -8
50 -19 10 -10 34 -22 52 -26 19 -4 41 -13 49 -20 8 -7 32 -20 53 -28 20 -9 37
-21 37 -26 0 -6 7 -11 15 -11 8 0 20 -9 27 -20 7 -11 18 -20 25 -20 7 0 19
-13 28 -30 9 -16 20 -30 25 -30 6 0 10 -27 10 -60 0 -48 -4 -64 -20 -77 -11
-10 -20 -23 -20 -29 0 -7 -19 -23 -42 -37 -33 -19 -53 -24 -87 -21 -25 2 -47
8 -50 13 -3 4 -17 12 -31 16 -14 4 -36 16 -49 26 -13 11 -31 19 -41 19 -10 0
-29 9 -42 20 -14 10 -45 22 -69 26 -24 4 -57 16 -74 26 -16 10 -44 18 -62 18
-17 0 -39 7 -48 16 -9 9 -33 18 -53 20 -77 9 -102 15 -109 28 -5 8 -35 17 -68
20 -33 4 -77 16 -98 27 -21 10 -49 19 -62 19 -27 0 -75 19 -75 30 0 4 -19 10
-42 13 -23 3 -47 13 -54 21 -6 9 -26 19 -45 22 -19 4 -43 15 -54 24 -11 10
-35 21 -52 25 -18 3 -33 11 -33 16 0 5 -18 16 -40 25 -22 9 -40 20 -40 24 0 5
-10 12 -22 16 -13 3 -30 13 -38 21 -8 8 -28 23 -45 34 -60 38 -69 45 -105 82
-21 20 -41 37 -45 37 -14 0 -90 74 -143 140 -28 36 -58 72 -66 80 -8 8 -17 27
-21 42 -4 15 -15 34 -26 44 -10 9 -19 28 -19 41 0 14 -9 36 -19 49 -11 15 -22
49 -26 82 -4 31 -9 68 -12 82 -8 43 -9 120 -1 120 5 0 7 3 6 8 -6 24 16 124
33 143 10 12 19 31 19 43 0 12 11 34 25 50 14 16 25 33 25 39 0 13 111 117
126 117 7 0 14 4 16 9 7 19 123 73 169 78 27 3 49 10 49 15 0 6 7 8 15 4 8 -3
15 -2 15 2 0 14 116 13 165 -3z m3218 3 c10 -5 26 -11 35 -12 9 -2 34 -6 55
-10 39 -7 119 -46 147 -71 9 -8 21 -15 27 -15 16 0 119 -103 127 -127 4 -11
13 -24 21 -27 8 -3 19 -24 25 -48 7 -24 18 -50 25 -58 12 -14 19 -39 28 -115
1 -11 5 -24 8 -30 16 -30 -17 -254 -42 -281 -10 -11 -19 -32 -19 -46 0 -14 -9
-33 -19 -42 -11 -10 -22 -29 -26 -44 -4 -15 -13 -34 -21 -42 -8 -8 -38 -44
-66 -80 -52 -65 -129 -140 -143 -140 -3 0 -27 -20 -52 -44 -67 -63 -75 -69
-116 -88 -20 -10 -37 -22 -37 -28 0 -5 -7 -10 -15 -10 -8 0 -22 -9 -32 -19
-10 -11 -30 -22 -45 -26 -14 -4 -34 -15 -44 -26 -9 -10 -27 -19 -39 -19 -12 0
-30 -9 -39 -19 -10 -11 -35 -22 -56 -26 -21 -4 -41 -12 -43 -19 -3 -8 -23 -17
-44 -21 -21 -3 -52 -15 -69 -26 -17 -10 -43 -19 -57 -19 -15 0 -43 -9 -64 -19
-21 -11 -65 -22 -97 -26 -33 -3 -65 -13 -70 -21 -6 -7 -41 -18 -78 -23 -38 -5
-75 -17 -84 -25 -8 -9 -30 -16 -47 -16 -18 0 -48 -8 -67 -19 -19 -10 -53 -21
-74 -25 -22 -4 -51 -16 -64 -27 -14 -10 -32 -19 -42 -19 -10 0 -28 -8 -41 -19
-13 -10 -35 -22 -49 -26 -14 -4 -27 -11 -30 -16 -3 -5 -23 -11 -45 -14 -43 -5
-123 28 -133 55 -3 8 -13 23 -24 33 -13 13 -18 33 -18 77 0 33 4 60 10 60 5 0
16 14 25 30 9 17 22 30 30 30 7 0 17 9 20 20 3 11 15 20 26 20 10 0 19 5 19
11 0 5 17 17 38 26 20 8 44 21 52 28 8 7 30 16 49 20 18 4 42 16 52 26 11 11
33 19 53 19 18 0 45 9 59 20 14 11 37 20 52 20 14 0 40 7 56 16 35 18 53 22
129 31 30 3 57 9 60 13 11 16 48 27 100 29 34 1 65 9 80 20 14 10 41 21 61 25
19 3 53 15 74 26 22 11 45 20 53 20 8 0 25 9 39 20 14 11 36 20 49 20 12 0 29
9 36 19 8 11 26 23 40 26 15 4 34 15 44 26 9 10 23 19 31 19 7 0 13 4 13 10 0
5 14 17 31 25 16 9 39 25 50 36 10 10 26 19 34 19 8 0 15 5 15 11 0 6 29 39
64 73 35 34 66 71 70 82 4 12 15 29 26 39 12 11 20 31 20 51 0 18 6 39 14 46
22 23 27 94 10 141 -9 23 -18 52 -21 63 -8 34 -94 110 -133 119 -19 4 -39 11
-45 15 -17 12 -55 19 -55 9 0 -5 -3 -8 -7 -7 -22 6 -89 -29 -128 -65 -88 -84
-103 -91 -174 -84 -41 4 -60 11 -70 26 -7 12 -19 21 -27 21 -7 0 -20 24 -28
54 -14 49 -15 60 -1 112 8 31 23 65 32 75 10 10 23 24 30 31 60 65 216 148
276 148 20 0 37 4 37 9 0 5 10 12 23 14 38 8 141 5 160 -5z m-2165 -314 c18
-15 32 -31 32 -35 0 -5 10 -19 21 -30 17 -17 20 -30 17 -64 -3 -23 -13 -51
-22 -61 -9 -11 -25 -30 -34 -42 -13 -17 -31 -25 -65 -29 -36 -4 -56 -14 -92
-47 -42 -39 -45 -45 -45 -94 0 -38 4 -52 14 -52 8 0 17 -9 21 -19 3 -11 14
-22 24 -26 17 -5 61 -91 61 -118 0 -7 -7 -22 -15 -33 -8 -10 -15 -27 -15 -36
0 -35 -48 -58 -122 -58 -69 0 -106 11 -121 36 -4 8 -13 14 -18 14 -16 0 -67
57 -75 83 -3 12 -14 31 -24 42 -10 11 -21 36 -25 55 -4 19 -13 46 -20 60 -16
33 -11 127 9 165 9 17 16 42 16 57 0 17 8 33 20 40 11 7 20 20 20 28 0 8 6 22
13 30 19 23 95 80 106 80 6 0 11 4 11 10 0 5 28 23 63 39 51 25 75 30 138 31
67 0 79 -3 107 -26z m1187 -4 c36 -17 65 -35 65 -40 0 -6 6 -10 13 -10 6 0 26
-12 42 -26 17 -14 40 -34 53 -45 12 -10 22 -27 22 -37 0 -9 8 -22 19 -29 11
-7 21 -29 25 -57 4 -25 11 -46 15 -46 4 0 8 -6 9 -12 10 -94 9 -116 -9 -160
-10 -27 -19 -57 -19 -67 0 -10 -9 -26 -20 -36 -11 -10 -20 -23 -20 -30 0 -17
-62 -95 -76 -95 -6 0 -18 -10 -26 -22 -13 -20 -26 -23 -95 -26 -48 -3 -89 1
-102 7 -21 12 -71 98 -71 123 0 26 45 108 62 114 10 3 18 11 18 19 0 8 9 17
20 20 17 5 20 15 20 58 0 49 -3 54 -46 93 -36 33 -56 43 -92 47 -33 4 -51 12
-64 29 -10 12 -27 34 -38 48 -26 33 -26 94 0 120 11 11 20 24 20 29 0 5 15 21
33 35 28 22 42 26 105 26 60 0 84 -5 137 -30z m-3295 -885 c30 -2 73 -14 95
-25 21 -11 45 -20 52 -20 6 0 18 -8 25 -18 7 -10 25 -22 39 -25 35 -9 86 -58
94 -90 4 -14 13 -31 21 -38 21 -17 18 -111 -4 -140 -10 -13 -21 -31 -24 -40
-4 -9 -27 -21 -52 -28 -25 -6 -46 -16 -46 -21 0 -15 -20 -12 -65 10 -22 11
-44 19 -48 20 -5 0 -30 20 -55 45 -26 25 -55 53 -65 63 -26 24 -215 24 -229
-1 -5 -10 -15 -17 -23 -17 -8 0 -35 -21 -60 -47 -41 -43 -45 -53 -46 -98 -1
-27 0 -61 1 -74 3 -36 99 -149 133 -156 15 -4 27 -13 27 -20 0 -8 15 -17 38
-20 20 -4 44 -9 52 -12 8 -4 17 -7 20 -8 3 -1 14 -6 25 -11 31 -14 289 -11
307 3 8 7 39 17 68 23 30 6 61 17 70 25 10 9 41 18 71 22 30 3 65 14 79 24 14
9 54 20 90 23 71 7 88 10 138 25 44 13 216 11 274 -5 26 -6 80 -15 120 -20 40
-4 75 -8 78 -9 3 0 16 -8 30 -17 14 -8 47 -18 73 -22 27 -3 55 -12 63 -21 8
-8 32 -19 53 -25 21 -5 44 -17 51 -25 7 -8 21 -15 32 -15 11 0 22 -9 25 -20 3
-13 14 -20 29 -20 13 0 32 -8 42 -18 10 -10 32 -24 49 -31 17 -7 34 -19 37
-27 3 -8 11 -14 19 -14 7 0 23 -10 35 -22 11 -13 33 -32 47 -43 56 -42 78 -62
133 -116 88 -87 132 -136 132 -148 0 -6 9 -15 20 -21 11 -6 20 -17 20 -25 0
-8 9 -19 20 -25 11 -6 23 -23 26 -38 4 -15 16 -33 26 -40 10 -7 18 -20 18 -28
0 -8 5 -14 11 -14 5 0 19 -20 30 -45 11 -25 24 -45 29 -45 5 0 12 -17 16 -37
4 -21 15 -44 24 -50 10 -7 21 -28 24 -48 4 -19 11 -35 16 -35 5 0 15 -19 21
-42 7 -24 19 -51 27 -60 8 -9 17 -39 20 -65 3 -26 13 -58 22 -70 11 -14 20
-51 24 -95 4 -40 15 -85 23 -102 10 -20 18 -77 23 -181 4 -84 11 -159 16 -166
5 -8 9 -23 10 -34 5 -53 17 -101 28 -107 6 -4 22 -8 36 -8 47 0 47 0 74 165 1
6 4 15 7 20 3 6 7 57 8 115 2 58 6 125 11 150 5 24 6 48 3 53 -2 4 1 6 8 5 9
-2 16 23 24 84 6 51 17 94 27 105 8 10 18 40 21 66 2 26 12 56 20 65 8 9 18
34 22 54 4 20 13 39 20 42 8 3 17 21 21 41 3 19 14 41 24 48 9 6 20 29 24 50
4 20 11 37 17 37 5 0 16 18 25 40 9 22 20 40 25 40 5 0 14 11 19 25 5 14 17
28 25 31 8 4 15 15 15 26 0 10 11 29 25 42 14 13 25 28 25 34 0 6 9 16 20 22
11 6 20 15 20 21 0 17 158 182 214 224 15 11 37 30 48 43 12 12 25 22 30 22 4
0 16 7 26 16 34 30 95 74 103 74 5 0 18 9 29 20 11 11 31 20 44 20 15 0 26 7
29 20 3 11 14 20 25 20 11 0 25 7 32 15 7 8 31 20 54 27 22 7 46 18 51 26 6 7
36 16 68 19 31 3 57 9 57 13 0 13 52 28 115 35 82 9 103 12 155 25 51 13 247
7 277 -8 10 -5 52 -13 93 -17 48 -4 84 -13 101 -25 14 -10 49 -20 78 -23 29
-3 60 -12 70 -21 10 -9 40 -21 67 -26 55 -12 61 -13 89 -26 11 -5 79 -9 150
-9 98 1 137 5 160 16 17 9 45 19 63 22 19 4 45 16 59 27 14 11 30 20 35 20 12
0 88 81 88 93 0 6 7 15 16 22 22 16 21 155 -1 171 -8 6 -15 15 -15 19 0 12
-61 65 -76 65 -7 0 -17 8 -23 17 -14 26 -202 26 -228 0 -10 -9 -39 -37 -65
-62 -25 -25 -50 -45 -55 -45 -4 0 -26 -10 -48 -21 -36 -20 -41 -20 -70 -6 -16
8 -45 20 -62 27 -18 7 -33 18 -33 25 0 6 -9 20 -20 30 -25 23 -29 125 -6 144
8 7 17 25 21 40 6 27 76 91 100 91 7 0 20 9 29 19 10 11 32 23 50 27 17 3 38
12 46 19 23 20 77 25 232 26 151 0 230 -11 255 -36 8 -8 23 -15 34 -15 11 0
22 -6 25 -14 3 -8 16 -17 29 -20 21 -5 60 -34 90 -66 6 -6 20 -21 33 -32 12
-12 22 -27 22 -33 0 -6 9 -21 20 -33 11 -12 23 -42 27 -67 3 -25 9 -45 14 -45
13 0 22 -62 21 -140 -2 -89 -4 -104 -19 -121 -6 -8 -14 -33 -18 -56 -4 -24
-12 -46 -18 -50 -7 -5 -20 -25 -29 -45 -10 -21 -22 -38 -28 -38 -5 0 -10 -5
-10 -12 0 -17 -109 -115 -142 -129 -16 -6 -28 -15 -28 -20 0 -5 -20 -14 -45
-20 -25 -6 -45 -15 -45 -20 0 -11 -67 -29 -112 -29 -21 0 -38 -4 -38 -9 0 -5
-16 -15 -35 -21 -40 -13 -46 -37 -15 -65 11 -10 20 -31 20 -47 0 -15 4 -28 10
-28 5 0 7 -6 4 -14 -3 -8 2 -25 11 -39 12 -19 16 -52 16 -155 0 -132 -6 -182
-22 -182 -4 0 -11 -23 -15 -51 -4 -29 -15 -60 -24 -69 -10 -10 -20 -34 -24
-54 -4 -20 -13 -39 -21 -42 -7 -3 -16 -15 -19 -27 -3 -12 -26 -42 -50 -67 -25
-25 -45 -51 -46 -57 0 -7 -4 -13 -10 -13 -5 0 -19 -11 -32 -23 -13 -13 -45
-39 -73 -58 -27 -19 -53 -39 -58 -46 -4 -7 -23 -15 -42 -19 -20 -3 -39 -13
-43 -20 -5 -8 -32 -18 -60 -23 -29 -4 -60 -15 -70 -25 -16 -13 -45 -16 -186
-16 -147 0 -171 2 -204 20 -20 10 -54 22 -75 25 -21 3 -41 13 -44 21 -3 7 -13
14 -22 14 -25 0 -91 49 -149 110 -75 80 -81 87 -88 115 -3 14 -14 31 -23 38
-11 7 -18 29 -19 57 -2 25 -7 66 -13 92 -6 25 -8 61 -4 80 6 34 24 143 27 166
1 6 7 12 15 12 7 0 13 7 13 15 0 8 9 24 19 34 11 11 24 29 31 40 6 12 17 21
25 21 8 0 15 6 15 14 0 8 10 18 22 22 13 4 28 14 34 22 6 8 35 18 64 23 29 5
57 14 61 21 5 8 42 14 101 16 80 4 101 1 141 -17 25 -12 57 -21 71 -21 15 0
35 -9 46 -20 11 -11 24 -20 29 -20 5 0 24 -19 41 -42 29 -40 31 -48 28 -106
-4 -56 -7 -66 -43 -102 -38 -39 -41 -40 -109 -40 -52 0 -74 4 -89 18 -49 45
-181 43 -193 -4 -3 -12 -14 -30 -25 -40 -27 -24 -26 -95 1 -119 11 -10 20 -24
20 -31 0 -7 12 -24 26 -36 14 -13 36 -32 49 -44 12 -12 43 -24 67 -28 23 -4
52 -13 63 -20 30 -19 141 -21 169 -3 12 9 44 19 71 23 93 13 275 166 275 229
0 12 10 32 22 44 20 22 21 34 21 156 0 121 -2 136 -22 160 -11 15 -21 37 -21
47 0 11 -10 32 -22 46 -55 62 -155 158 -178 170 -14 7 -36 19 -50 27 -14 8
-37 17 -52 20 -15 3 -33 12 -42 20 -8 8 -27 15 -42 15 -35 0 -104 21 -104 32
0 4 -85 8 -190 8 -127 0 -190 -4 -190 -11 0 -5 -4 -8 -9 -4 -5 3 -12 1 -16 -4
-3 -6 -32 -13 -65 -17 -33 -4 -65 -13 -71 -20 -6 -7 -27 -16 -48 -20 -20 -3
-47 -13 -61 -22 -14 -9 -38 -23 -55 -32 -60 -32 -80 -45 -93 -62 -7 -10 -18
-18 -24 -18 -5 0 -23 -11 -40 -25 -16 -14 -36 -25 -44 -25 -8 0 -14 -7 -14
-15 0 -9 -11 -21 -25 -27 -14 -6 -25 -17 -25 -25 0 -7 -6 -13 -12 -13 -7 0
-26 -17 -43 -36 -16 -20 -49 -55 -72 -79 -24 -24 -43 -47 -43 -52 0 -5 -11
-20 -25 -33 -14 -13 -25 -29 -25 -37 0 -7 -9 -18 -20 -25 -11 -7 -20 -17 -20
-21 0 -5 -11 -22 -25 -39 -14 -16 -25 -36 -25 -43 0 -8 -9 -19 -20 -25 -11 -6
-20 -19 -20 -29 0 -10 -8 -29 -18 -42 -10 -13 -24 -39 -31 -56 -8 -18 -17 -33
-21 -33 -4 0 -11 -17 -15 -37 -4 -21 -15 -47 -25 -58 -9 -11 -20 -42 -23 -68
-2 -26 -11 -56 -20 -65 -8 -9 -18 -46 -22 -82 -4 -36 -9 -76 -12 -90 -3 -14
-5 -33 -6 -42 -1 -10 -4 -18 -7 -18 -3 0 -7 -82 -8 -182 -1 -188 -13 -272 -38
-282 -8 -3 -14 -11 -14 -19 0 -18 -62 -87 -78 -87 -6 0 -12 -6 -12 -14 0 -8
-10 -18 -22 -22 -13 -3 -31 -14 -40 -24 -9 -10 -38 -21 -64 -25 -27 -4 -57
-13 -68 -21 -26 -18 -86 -18 -111 0 -11 7 -40 17 -65 21 -25 4 -54 15 -65 25
-11 10 -30 21 -42 25 -13 3 -23 13 -23 21 0 8 -6 14 -12 14 -15 0 -78 69 -78
85 0 7 -9 20 -19 29 -25 23 -31 73 -33 281 -1 94 -6 179 -12 190 -5 11 -10 29
-11 40 -7 95 -20 163 -32 177 -9 9 -18 39 -20 65 -3 26 -14 57 -23 68 -10 11
-21 37 -25 58 -4 20 -11 37 -15 37 -4 0 -13 15 -21 33 -7 17 -21 43 -31 56
-10 13 -18 32 -18 42 0 10 -9 23 -20 29 -11 6 -20 17 -20 25 0 7 -11 27 -25
43 -14 17 -25 33 -25 38 0 4 -7 14 -15 23 -41 44 -75 86 -75 94 0 5 -18 27
-40 50 -22 23 -64 67 -94 98 -29 31 -61 59 -70 62 -9 4 -16 13 -16 22 0 8 -7
15 -15 15 -9 0 -28 11 -43 25 -15 14 -32 25 -39 25 -6 0 -18 8 -25 18 -7 9
-24 23 -38 30 -35 19 -81 45 -110 64 -14 9 -41 19 -61 22 -21 4 -42 13 -48 20
-6 7 -35 16 -65 20 -29 3 -66 13 -82 21 -41 21 -378 22 -400 1 -8 -8 -40 -18
-71 -22 -32 -4 -63 -13 -71 -20 -7 -8 -25 -17 -40 -20 -29 -6 -50 -15 -97 -42
-48 -27 -194 -179 -201 -210 -4 -15 -16 -40 -27 -56 -17 -25 -20 -45 -20 -156
0 -113 2 -131 21 -162 12 -20 22 -42 22 -50 0 -30 145 -178 175 -178 7 0 20
-9 29 -19 12 -13 38 -22 77 -26 37 -4 63 -13 66 -21 7 -19 125 -19 162 1 16 8
48 17 71 21 23 4 53 16 65 28 13 12 35 31 49 44 14 12 26 29 26 36 0 7 9 21
20 31 29 26 26 83 -5 125 -14 19 -25 39 -25 46 0 17 -79 28 -127 19 -21 -4
-46 -15 -56 -26 -12 -12 -32 -19 -60 -20 -88 -2 -101 2 -142 41 -36 36 -39 44
-43 102 -3 58 -1 66 28 106 17 23 36 42 41 42 5 0 18 9 29 20 11 11 32 20 48
20 15 1 45 9 67 20 57 28 191 28 242 0 21 -11 52 -20 70 -20 19 0 41 -8 52
-19 10 -10 28 -22 40 -26 12 -3 21 -12 21 -20 0 -8 9 -17 20 -20 11 -3 20 -10
20 -14 0 -5 11 -20 25 -35 14 -15 25 -32 25 -38 0 -6 8 -16 17 -23 17 -13 36
-121 36 -205 -1 -78 -18 -178 -35 -197 -9 -10 -19 -29 -23 -43 -8 -27 -10 -30
-87 -110 -59 -61 -124 -110 -149 -110 -9 0 -19 -7 -22 -14 -3 -8 -23 -18 -44
-21 -21 -3 -55 -15 -75 -25 -32 -18 -57 -20 -198 -20 -141 0 -165 2 -197 20
-21 11 -48 20 -60 20 -26 0 -73 20 -73 30 0 4 -16 11 -36 14 -19 4 -37 13 -40
21 -3 8 -15 17 -25 20 -46 15 -249 219 -249 251 0 6 -7 14 -14 17 -8 3 -18 23
-22 43 -4 20 -15 45 -25 55 -11 11 -19 31 -19 47 0 15 -10 47 -21 72 -17 38
-20 64 -19 170 1 140 1 140 24 192 9 21 16 48 16 61 0 13 9 32 20 42 30 27 22
57 -17 67 -18 5 -33 13 -33 18 0 6 -17 10 -37 10 -46 0 -113 18 -113 29 0 5
-20 14 -45 20 -25 6 -45 15 -45 20 0 5 -12 14 -27 20 -29 12 -143 111 -143
124 0 4 -7 15 -16 25 -33 37 -63 93 -70 129 -3 21 -13 46 -21 55 -22 24 -22
202 -1 243 8 17 18 46 22 66 4 21 15 48 26 62 11 14 20 29 20 34 0 5 10 19 23
31 12 11 27 26 32 32 30 31 68 60 81 60 8 0 22 9 31 20 10 11 22 20 28 20 6 0
28 10 50 21 56 30 216 40 395 24z m2660 -862 l40 -37 0 -300 0 -299 -41 -39
c-57 -55 -76 -60 -121 -34 -21 11 -38 26 -38 31 0 6 -9 18 -20 28 -19 16 -20
29 -20 315 l0 298 40 37 c33 30 49 37 80 37 31 0 47 -7 80 -37z"/>
</g>
</svg>
